<svg xmlns="http://www.w3.org/2000/svg" width="1440" height="1150" viewBox="0 0 1440 1150">
  <rect width="100%" height="100%" fill="#f6f0e7" />
  <style>text{font-family:Inter,Arial,sans-serif}</style>
  
  <text x="56" y="70" font-size="18" fill="#2f4a42">← Back to dashboard</text>
  <rect x="56" y="105" width="1328" height="210" rx="30" fill="#efe2cf" stroke="#ddcdb8" />
  <text x="86" y="158" font-size="14" font-weight="800" fill="#9a623f">ACCOUNT WORKSPACE</text>
  <text x="86" y="220" font-size="48" font-weight="900" fill="#20322d">American Board of Clinical Nutrition</text>
  <text x="86" y="260" font-size="20" fill="#526158">Credentialing · Engaged · Next touch due 2026-07-03</text>
  <rect x="1085" y="165" width="220" height="50" rx="25" fill="#2f4a42"/><text x="1130" y="198" font-size="15" font-weight="800" fill="#fff">Draft next action</text>
  
  <rect x="56" y="350" width="640" height="180" rx="22" fill="#fffaf1" stroke="#e2d4c1" />
  <rect x="74" y="368" width="92" height="24" rx="12" fill="#e4efe8" />
  <text x="86" y="385" font-size="11" font-weight="700" fill="#2f4a42">Snapshot</text>
  <text x="74" y="422" font-size="20" font-weight="800" fill="#20322d">Fit 92 · Timing 88</text>
  <text x="74" y="452" font-size="13" fill="#62574d">Pain: prep is split across PDFs, webinars, LMS.</text>
  <text x="74" y="478" font-size="13" fill="#62574d">Research: contract, board timeline, retake policy.</text>
  
  <rect x="744" y="350" width="640" height="180" rx="22" fill="#fffaf1" stroke="#e2d4c1" />
  <rect x="762" y="368" width="92" height="24" rx="12" fill="#e4efe8" />
  <text x="774" y="385" font-size="11" font-weight="700" fill="#a34832">Do next</text>
  <text x="762" y="422" font-size="20" font-weight="800" fill="#20322d">Send journey map</text>
  <text x="762" y="452" font-size="13" fill="#62574d">Show enrollment, practice progress, risk flags.</text>
  <text x="762" y="478" font-size="13" fill="#62574d">Why: gives Maya a board-ready story.</text>
  
  <rect x="56" y="570" width="640" height="180" rx="22" fill="#fffaf1" stroke="#e2d4c1" />
  <rect x="74" y="588" width="92" height="24" rx="12" fill="#e4efe8" />
  <text x="86" y="605" font-size="11" font-weight="700" fill="#2f4a42">Contacts</text>
  <text x="74" y="642" font-size="20" font-weight="800" fill="#20322d">Maya Chen · Jon Rivera</text>
  <text x="74" y="672" font-size="13" fill="#62574d">Economic buyer and technical evaluator.</text>
  <text x="74" y="698" font-size="13" fill="#62574d">Angles: learner risk and reporting cleanup.</text>
  
  <rect x="744" y="570" width="640" height="180" rx="22" fill="#fffaf1" stroke="#e2d4c1" />
  <rect x="762" y="588" width="92" height="24" rx="12" fill="#e4efe8" />
  <text x="774" y="605" font-size="11" font-weight="700" fill="#2f4a42">Buying committee</text>
  <text x="762" y="642" font-size="20" font-weight="800" fill="#20322d">Maya · Jon · Priya</text>
  <text x="762" y="672" font-size="13" fill="#62574d">Decision maker, evaluator, approver.</text>
  <text x="762" y="698" font-size="13" fill="#62574d">Cares about board value and budget clarity.</text>
  
  <rect x="56" y="790" width="640" height="180" rx="22" fill="#fffaf1" stroke="#e2d4c1" />
  <rect x="74" y="808" width="92" height="24" rx="12" fill="#e4efe8" />
  <text x="86" y="825" font-size="11" font-weight="700" fill="#2f4a42">Meeting history</text>
  <text x="74" y="862" font-size="20" font-weight="800" fill="#20322d">Intro and discovery complete</text>
  <text x="74" y="892" font-size="13" fill="#62574d">Board story + admin effort confirmed.</text>
  <text x="74" y="918" font-size="13" fill="#62574d">Follow-up: learner journey map.</text>
  
  <rect x="744" y="790" width="640" height="180" rx="22" fill="#fffaf1" stroke="#e2d4c1" />
  <rect x="762" y="808" width="92" height="24" rx="12" fill="#e4efe8" />
  <text x="774" y="825" font-size="11" font-weight="700" fill="#2f4a42">Timeline</text>
  <text x="762" y="862" font-size="20" font-weight="800" fill="#20322d">Research → call → discovery</text>
  <text x="762" y="892" font-size="13" fill="#62574d">Modernization signal became board urgency.</text>
  <text x="762" y="918" font-size="13" fill="#62574d">Next: send board-ready map.</text>
</svg>