<svg xmlns="http://www.w3.org/2000/svg" width="1440" height="1100" viewBox="0 0 1440 1100">
  <rect width="100%" height="100%" fill="#f6f0e7" />
  <style>text{font-family:Inter,Arial,sans-serif}</style>
  
  <rect x="0" y="0" width="1440" height="260" fill="#efe2cf" />
  <text x="56" y="56" font-size="18" font-weight="800" fill="#20322d">Sales Command Center</text>
  <text x="56" y="120" font-size="58" font-weight="900" fill="#20322d">Decide the next best sales move</text>
  <text x="56" y="170" font-size="24" fill="#526158">A calm cockpit for priority, prep, follow-up, momentum, and risk.</text>
  
  <rect x="56" y="300" width="315" height="160" rx="22" fill="#fffaf1" stroke="#e2d4c1" />
  <rect x="74" y="318" width="92" height="24" rx="12" fill="#e4efe8" />
  <text x="86" y="335" font-size="11" font-weight="700" fill="#a34832">Work first</text>
  <text x="74" y="372" font-size="20" font-weight="800" fill="#20322d">American Board of Clinical Nutrition</text>
  <text x="74" y="402" font-size="13" fill="#62574d">Send the board-ready journey map.</text>
  <text x="74" y="428" font-size="13" fill="#62574d">Why: modernization has board urgency.</text>
  
  <rect x="391" y="300" width="315" height="160" rx="22" fill="#fffaf1" stroke="#e2d4c1" />
  <rect x="409" y="318" width="92" height="24" rx="12" fill="#e4efe8" />
  <text x="421" y="335" font-size="11" font-weight="700" fill="#2f4a42">Meetings</text>
  <text x="409" y="372" font-size="20" font-weight="800" fill="#20322d">2 meetings need prep</text>
  <text x="409" y="402" font-size="13" fill="#62574d">Certification and CE launch calls.</text>
  <text x="409" y="428" font-size="13" fill="#62574d">Open with buyer pressure.</text>
  
  <rect x="726" y="300" width="315" height="160" rx="22" fill="#fffaf1" stroke="#e2d4c1" />
  <rect x="744" y="318" width="92" height="24" rx="12" fill="#e4efe8" />
  <text x="756" y="335" font-size="11" font-weight="700" fill="#a34832">Overdue</text>
  <text x="744" y="372" font-size="20" font-weight="800" fill="#20322d">1 follow-up overdue</text>
  <text x="744" y="402" font-size="13" fill="#62574d">Audit reporting example.</text>
  <text x="744" y="428" font-size="13" fill="#62574d">Clear promises before new work.</text>
  
  <rect x="1061" y="300" width="323" height="160" rx="22" fill="#fffaf1" stroke="#e2d4c1" />
  <rect x="1079" y="318" width="92" height="24" rx="12" fill="#e4efe8" />
  <text x="1091" y="335" font-size="11" font-weight="700" fill="#2f4a42">Momentum / risk</text>
  <text x="1079" y="372" font-size="20" font-weight="800" fill="#20322d">3 / 3 accounts</text>
  <text x="1079" y="402" font-size="13" fill="#62574d">Push champions and rescue drift.</text>
  <text x="1079" y="428" font-size="13" fill="#62574d">Open account workspace.</text>
  <rect x="56" y="500" width="840" height="280" rx="26" fill="#fffaf1" stroke="#e2d4c1" />
  <text x="86" y="548" font-size="28" font-weight="900" fill="#20322d">Priority queue</text>
  <circle cx="104" cy="598" r="18" fill="#20322d"/><text x="99" y="604" font-size="14" font-weight="800" fill="#fff">1</text>
  <text x="136" y="594" font-size="18" font-weight="800" fill="#20322d">American Board of Clinical Nutrition</text>
  <text x="136" y="624" font-size="14" fill="#62574d">Open with board deadline, then confirm learner checkpoints.</text>
  <circle cx="104" cy="678" r="18" fill="#20322d"/><text x="99" y="684" font-size="14" font-weight="800" fill="#fff">2</text>
  <text x="136" y="674" font-size="18" font-weight="800" fill="#20322d">Association of Rural Health Educators</text>
  <text x="136" y="704" font-size="14" fill="#62574d">Ask what must be true by September for launch to feel safe.</text>
  <rect x="920" y="500" width="464" height="280" rx="26" fill="#fffaf1" stroke="#e2d4c1" />
  <text x="950" y="548" font-size="24" font-weight="900" fill="#20322d">Momentum accounts</text>
  <text x="950" y="598" font-size="16" font-weight="800" fill="#20322d">National Credit Union Learning Network</text>
  <text x="950" y="628" font-size="16" font-weight="800" fill="#20322d">American Board of Clinical Nutrition</text>
  <text x="950" y="678" font-size="24" font-weight="900" fill="#a34832">At-risk accounts</text>
  <text x="950" y="728" font-size="16" font-weight="800" fill="#20322d">Midwest Manufacturing Safety Council</text>
  <text x="56" y="855" font-size="30" font-weight="900" fill="#20322d">Meetings · Follow-ups · Triggers</text>
  
  <rect x="56" y="890" width="410" height="155" rx="22" fill="#fffaf1" stroke="#e2d4c1" />
  <rect x="74" y="908" width="92" height="24" rx="12" fill="#e4efe8" />
  <text x="86" y="925" font-size="11" font-weight="700" fill="#2f4a42">Meeting prep</text>
  <text x="74" y="962" font-size="20" font-weight="800" fill="#20322d">Maya Chen</text>
  <text x="74" y="992" font-size="13" fill="#62574d">Compare certification learner journeys.</text>
  <text x="74" y="1018" font-size="13" fill="#62574d">Action: send simple journey map.</text>
  
  <rect x="516" y="890" width="410" height="155" rx="22" fill="#fffaf1" stroke="#e2d4c1" />
  <rect x="534" y="908" width="92" height="24" rx="12" fill="#e4efe8" />
  <text x="546" y="925" font-size="11" font-weight="700" fill="#a34832">Overdue</text>
  <text x="534" y="962" font-size="20" font-weight="800" fill="#20322d">Rachel Kim</text>
  <text x="534" y="992" font-size="13" fill="#62574d">Plant-level audit reporting.</text>
  <text x="534" y="1018" font-size="13" fill="#62574d">Action: send reporting screenshots.</text>
  
  <rect x="976" y="890" width="408" height="155" rx="22" fill="#fffaf1" stroke="#e2d4c1" />
  <rect x="994" y="908" width="92" height="24" rx="12" fill="#e4efe8" />
  <text x="1006" y="925" font-size="11" font-weight="700" fill="#2f4a42">Trigger</text>
  <text x="994" y="962" font-size="20" font-weight="800" fill="#20322d">Dana Patel</text>
  <text x="994" y="992" font-size="13" fill="#62574d">New compliance learning director.</text>
  <text x="994" y="1018" font-size="13" fill="#62574d">Action: invite them to reporting discussion.</text>
</svg>